#!OML:ASF E:/inclinewalkrobotboard/Project1/Captureday1/Session1/subject1.ASF
:FULLY-SPECIFIED
:DEGREES
1
root 0 0 0 -2.4443176117526084 12.551684875336708 -2.4182062668065747
lowerback 8.939102190173083 -1.537833561642921 -1.0608832101805346
upperback 1.4224979051751112 -2.0900502206231497 1.073803342229295
thorax -3.3694214314314452 -1.02052239173797 1.987751303653064
lowerneck -11.505352790139035 -0.4219009470976882 -6.095915605348031
upperneck 14.427155005629583 0.19878709242532278 0.01854229080993708
head 6.611558629033337 0.04014891782172536 1.0177881296624558
rclavicle -9.066241233936038E-15 -1.548587455689116E-16
rhumerus -6.9511447805610835 -4.436883734365658 -71.66852425052826
rradius 22.972068898608132
rwrist 54.38097306636949
rhand -7.526351978473523 20.193721255618687
rfingers 7.125019999999937
rthumb 18.38244180924762 -9.436212730673645
lclavicle 1.541413850866936E-15 4.083747275630487E-15
lhumerus -23.23808153557752 -0.3672151353536002 79.62928380460355
lradius 43.30200303209699
lwrist -30.75920142025893
lhand -14.765227315701429 17.447187445358747
lfingers 7.066911837781928
lthumb 11.195042182992182 64.17607353176419
rfemur -8.07400893535088 6.695713000613585 32.73082498291635
rtibia 27.613990871499112
rfoot -7.682346833341526 -4.182611252310231
rtoes 15.726249866237131
lfemur -4.293380978701858 -0.18066468254389312 -17.12923710492711
ltibia 61.6102392660715
lfoot 15.786981053606075 -17.833742474003795
ltoes -0.31463059507679425
2
root 0 0 0 -1.5715196828818585 12.07925844224809 -3.470305585304653
lowerback 8.967727420695983 -1.3010940192842626 -0.5757498146375857
upperback 1.323506091326393 -1.7432118634776357 1.1218886530207008
thorax -3.4871507895415808 -0.8438517387747855 1.7361075258778464
lowerneck -11.873953586138143 -0.7496840043215665 -6.23084374935113
upperneck 12.572725594474592 -0.199090729419368 0.10782895157648031
head 6.151535600326271 -0.13281256006228892 1.0261000830491755
rclavicle -9.479893848369167E-15 -3.94007773200353E-16
rhumerus -4.493543759181755 -6.059846563313462 -70.84923936610738
rradius 20.9144353076014
rwrist 55.659885138014076
rhand -6.903273051089016 20.89293884648838
rfingers 7.125019999999928
rthumb 18.977059116051517 -8.735389610449118
lclavicle 3.368765871395721E-16 4.8876874946166554E-15
lhumerus -24.843227974478832 -0.1493749493445229 80.38775121206184
lradius 38.46328595702492
lwrist -35.20928298023554
lhand -13.588739655523714 16.011385749352375
lfingers 7.056939353020962
lthumb 12.283945501132 66.08262477017158
rfemur -5.385733763371087 7.253740034982523 33.94930529949239
rtibia 26.171119337105115
rfoot -10.207028668451398 -4.467829157111801
rtoes 15.418595074382884
lfemur -6.989591650465776 0.5273774903925721 -16.485327870121697
ltibia 64.67138763048166
lfoot 14.694919412511892 -17.342179425753127
ltoes -0.8367429051959858
3
root 0 0 0 -0.02574047641128674 8.45762543969991 -4.044448422249701
lowerback 9.120599564609353 -0.9114291120589832 0.31667146986588524
upperback 1.2633697440966511 -1.166246763689745 1.1112851048488523
thorax -3.6478176192067493 -0.5540088277791884 1.1604213730123552
lowerneck -12.174232978126543 -1.1794118098774897 -6.275918023533655
upperneck 9.982901950039597 -0.7595310694271471 0.7217980951354441
head 5.46765113362645 -0.3656681940184783 1.1899123556205904
rclavicle -9.672579939020796E-15 -4.142956633422032E-16
rhumerus -2.4886646820058553 -7.683837923600551 -69.998718915902
rradius 19.878567072780534
rwrist 56.320847008442115
rhand -6.815538559977092 21.20474960285299
rfingers 7.125019999999922
rthumb 19.058920228553895 -8.434710763351635
lclavicle -7.086251008201358E-16 5.46708119774607E-15
lhumerus -25.056615008450528 0.3990528754930587 80.24702921931107
lradius 36.2000971017409
lwrist -37.178613134182
lhand -12.965090369258046 15.3971934827689
lfingers 7.054226198009764
lthumb 12.867949905307517 66.90393151931939
rfemur -3.4653379915008387 7.619851340960459 34.81793114847506
rtibia 25.30115640478871
rfoot -12.738341261402557 -4.853331387813817
rtoes 14.70064470655228
lfemur -10.327676889859827 1.450458411491254 -15.74707830314598
ltibia 67.94654717802375
lfoot 12.56882529290141 -16.3654762038458
ltoes -1.915423884629091
4
root 0 0 0 4.1103692915061565 -1.9286927651512151 -4.849311705590763
lowerback 9.863275137126857 0.19097755372075575 2.5369963173561665
upperback 1.2948360293345371 0.4213388403630034 0.9467613556416493
thorax -4.0754367724950935 0.24265742053046452 -0.44355987079207354
lowerneck -12.45487168509083 -2.3240704386087954 -6.282139552358325
upperneck 4.314348370182618 -2.2970761840825733 2.810349666073445
head 3.9160630425137852 -1.0262187325158918 1.792899598735241
rclavicle -9.86153622156322E-15 -4.573760263907068E-16
rhumerus -0.3549343127209672 -9.260763852522187 -69.33176032851624
rradius 18.983760964807345
rwrist 56.99108795242579
rhand -6.847894854771189 21.43195391752297
rfingers 7.125019999999917
rthumb 19.02564972873785 -8.222159784503912
lclavicle -2.015948663419446E-15 6.020555469960329E-15
lhumerus -25.246860466062046 1.4661828654705253 79.92102877161925
lradius 35.42436948185674
lwrist -38.10285703559323
lhand -12.649610835084827 14.993679613106236
lfingers 7.053118260772156
lthumb 13.167383065886614 66.86071158842752
rfemur -1.2103000707164178 7.942301694057032 35.80989595875799
rtibia 24.68493390281638
rfoot -15.79372316905528 -5.290179764038792
rtoes 13.646197216637416
lfemur -17.199899118190718 3.0640472956413083 -14.344618816401935
ltibia 72.85399866741544
lfoot 8.081568327215928 -14.076517965679162
ltoes -3.968994969919418
